<?xml version="1.0" encoding="UTF-8"?>
<svg xmlns="http://www.w3.org/2000/svg" viewBox="0 0 512 512">
  <defs>
    <style>
      .cls-1 {
        fill: #dbdbdb;
      }

      .cls-1, .cls-2, .cls-3, .cls-4, .cls-5, .cls-6, .cls-7 {
        stroke-width: 0px;
      }

      .cls-2 {
        fill: #000;
      }

      .cls-3 {
        fill: none;
      }

      .cls-4 {
        fill: #d2d2d2;
      }

      .cls-5 {
        fill: #dadada;
      }

      .cls-6 {
        fill: #fff;
      }

      .cls-7 {
        fill: #d1d1d1;
      }
    </style>
  </defs>
  <g id="Layer_10" data-name="Layer 10">
    <rect class="cls-1" x="244.7" y="206.35" width="146.2" height="108"/>
    <rect class="cls-1" width="512" height="512"/>
  </g>
  <g id="Layer_1" data-name="Layer 1">
    <g>
      <path class="cls-1" d="M-.24,94.8V-.24h160.07c0,8.83-.02,17.67,0,26.5.02,8.01.5,8.5,8.49,8.51,27.67.02,55.33,0,83,.01,8.44,0,8.54.11,8.55,8.76,0,37.17,0,74.34,0,111.5,0,8.77-.03,8.79-9.01,8.79-27.67,0-55.33,0-83,0-7.68,0-8,.32-8.03,7.77-.02,5.17-.02,10.33,0,15.5.03,7.32.4,7.73,7.57,7.73,114.84,0,229.67,0,344.51-.02,0,4.69,0,9.37,0,14.06-105.34,0-210.68-.02-316.02-.03-9.5,0-19-.02-28.5,0-7.15.02-7.53.41-7.55,7.75-.02,8.17-.01,16.33,0,24.5,0,8.65.1,8.76,8.54,8.76,27.67,0,55.34,0,83.01.01,8,0,8.49.49,8.49,8.51.01,37.34,0,74.67,0,112.01,0,9.37-.16,9.53-9.48,9.53-27.5,0-55,0-82.51,0-7.8,0-8.04.26-8.06,8.24-.01,5.33-.02,10.67,0,16,.03,7.34.4,7.76,7.54,7.76,114.84,0,229.68,0,344.52-.02.03,31.16.07,62.33.07,93.49,0,6-.57,6.55-6.65,6.56-23.33.03-46.66.03-69.99.02-60.16-.03-120.32-.06-180.48-.09,0-6.5.04-13,.02-19.5-.03-6.93-.48-7.41-7.38-7.41-26.5-.02-53-.01-79.49-.01-14.65,0-14.44,0-14.12-14.69.46-20.45.74-40.9.76-61.35.02-14.81-.54-29.61-.77-44.42-.13-8.34,1.14-9.59,9.34-9.59,27.66,0,55.33,0,82.99,0,8.25,0,8.64-.42,8.66-8.84.01-8,0-16,0-24q0-9.16-9.13-9.17c-81.99,0-163.99,0-245.98,0v-15.01c81.03,0,162.05,0,243.08,0,1.5,0,3,0,4.5,0,7.03-.05,7.48-.47,7.52-7.28.03-4.83.01-9.67,0-14.5,0-9.93-.28-10.21-9.98-10.22-16.17-.01-32.34,0-48.52,0-12.17,0-24.34-.05-36.51,0-4.12.02-5.99-1.52-5.92-5.96.28-17.96.41-35.92.38-53.89-.04-20.14-.35-40.28-.47-60.43-.05-8.37.4-8.78,8.71-8.79,28.34-.01,56.69.01,85.03-.02,6.45,0,7.22-.81,7.27-7.2.06-7.84.02-15.67.02-23.51q0-11.28-11.03-11.28c-81.36,0-162.72,0-244.08,0Z"/>
      <path class="cls-7" d="M511.91,194.82c-114.84,0-229.67.02-344.51.02-7.17,0-7.54-.41-7.57-7.73-.02-5.17-.02-10.33,0-15.5.03-7.45.34-7.77,8.03-7.77,27.67-.01,55.33,0,83,0,8.98,0,9.01-.02,9.01-8.79,0-37.17,0-74.34,0-111.5,0-8.65-.1-8.76-8.55-8.76-27.67,0-55.33,0-83-.01-8,0-8.47-.5-8.49-8.51-.02-8.83,0-17.67,0-26.5,117.39,0,234.77,0,352.16,0-.03,2.99-.06,5.98-.09,8.98-71.32,0-142.64,0-213.96.05-12.74,0-12.2-1.9-12.02,13.24.04,3.4,1.79,4.79,5.02,4.73,1.83-.03,3.67.02,5.5.02,71.82.01,143.64.02,215.46.03,0,7.98,0,15.97-.01,23.95-17.79-.12-35.58-.23-53.36-.38-11.46-.1-22.92-.43-34.38-.36-12.61.07-25.21.72-37.82.68-17.11-.04-34.21-.55-51.32-.67-1.76-.01-4.98,1.12-5.07,1.97-.51,4.87-.88,9.94.11,14.65.26,1.25,5.47,2.05,8.41,2.06,57.82.13,115.63.11,173.45.12,0,7.65,0,15.31,0,22.96-72.99,0-145.98-.01-218.97.05-14.21.01-13.13-2.28-13.02,14.23.02,3.4,1.79,4.79,5.02,4.73,1.83-.03,3.67.02,5.5.02,73.82.01,147.64.02,221.47.03,0,7.32,0,14.63-.01,21.95-2.33,0-4.67.03-7,.03-32.51,0-65.03-.03-97.54.07-2.19,0-6.12.68-6.27,1.53-.75,4.5-1.15,9.28-.29,13.69.26,1.35,4.92,2.59,7.57,2.6,34.51.18,69.03.13,103.55.14,0,3.98,0,7.97,0,11.95-63.35,0-126.7.02-190.05.03-2,0-4.06-.21-5.98.22-1.49.33-3.88,1.4-3.98,2.33-.46,4.39-1,9.04.09,13.17.36,1.39,5.43,2.18,8.35,2.19,63.85.13,127.7.11,191.55.12,0,4.65.01,9.3.02,13.95Z"/>
      <path class="cls-7" d="M-.24,94.8c81.36,0,162.72,0,244.08,0q11.03,0,11.03,11.28c0,7.84.04,15.67-.02,23.51-.05,6.4-.82,7.2-7.27,7.2-28.34.04-56.69.01-85.03.02-8.31,0-8.76.41-8.71,8.79.13,20.14.44,40.28.47,60.43.03,17.96-.1,35.93-.38,53.89-.07,4.44,1.81,5.98,5.92,5.96,12.17-.05,24.34,0,36.51,0,16.17,0,32.34,0,48.52,0,9.7,0,9.97.29,9.98,10.22,0,4.83.02,9.67,0,14.5-.05,6.81-.49,7.23-7.52,7.28-1.5.01-3,0-4.5,0-81.03,0-162.05,0-243.08,0v-14.01c31.84,0,63.69.01,95.53-.02,6.73,0,7.42-.77,7.51-7.49.01-1,0-2,0-3-.03-8-.5-8.49-8.51-8.5-31.51-.02-63.02,0-94.53-.01v-12.01c3.16-.02,6.4.37,9.45-.22,1.65-.32,3.97-2.1,4.28-3.58,2.49-11.86.51-14.2-11.23-14.21-.83,0-1.66,0-2.49,0v-22.01c30.33,0,60.67,0,91,0,12.17,0,24.34.06,36.5-.07,1.88-.02,5.27-.68,5.37-1.4.64-4.69,1.06-9.56.38-14.2-.16-1.11-4.72-2.24-7.26-2.25-42-.14-84-.1-126.01-.1v-24.01c13.34,0,26.68,0,40.01,0,13.17,0,26.34-.1,39.51.04,4.7.05,6.84-1.85,6.51-6.54-.08-1.16,0-2.33,0-3.5-.05-7.35-.65-7.99-8-8-26.01-.02-52.02,0-78.03,0v-23.01c39.17,0,78.34,0,117.5,0q10.59,0,10.56-10.75c-.03-8.07-.19-8.25-8.56-8.25-39.83,0-79.67,0-119.5,0v-16.01Z"/>
      <path class="cls-7" d="M-.24,312.9c81.99,0,163.99,0,245.98,0q9.12,0,9.13,9.17c0,8,.01,16,0,24-.02,8.42-.41,8.84-8.66,8.84-27.66.01-55.33,0-82.99,0-8.2,0-9.47,1.25-9.34,9.59.23,14.81.78,29.61.77,44.42-.03,20.45-.31,40.9-.76,61.35-.33,14.69-.54,14.69,14.12,14.69,26.5,0,53-.01,79.49.01,6.9,0,7.35.48,7.38,7.41.03,6.5,0,13-.02,19.5-2.83.03-5.67.09-8.5.09-82.2,0-164.39,0-246.59,0v-10c31.5,0,62.99,0,94.49,0,8.45,0,8.55-.12,8.55-8.75,0-.17,0-.33,0-.5,0-8.63-.11-8.75-8.55-8.75-31.5,0-62.99,0-94.49,0v-13.01c3.16-.02,6.4.37,9.45-.22,1.65-.32,3.97-2.1,4.28-3.58,2.49-11.86.51-14.2-11.23-14.21-.83,0-1.66,0-2.49,0v-22.01c30,0,60,0,90,0,12.5,0,25,.06,37.5-.07,1.88-.02,5.27-.68,5.37-1.4.64-4.69,1.06-9.56.38-14.2-.16-1.11-4.72-2.24-7.26-2.25-42-.14-84-.1-126.01-.1v-24.01c13.34,0,26.68,0,40.01,0,13.17,0,26.34-.1,39.51.04,4.69.05,6.84-1.85,6.51-6.54-.08-1.16,0-2.33,0-3.5-.05-7.35-.64-7.99-8-7.99-26.01-.02-52.02,0-78.03-.01v-23.01c39.31,0,78.61,0,117.92,0q10.18,0,10.14-10.15c-.03-8.52-.34-8.85-9.15-8.85-39.64,0-79.28,0-118.91,0v-16.01Z"/>
      <path class="cls-5" d="M-.24,110.81c39.83,0,79.67,0,119.5,0,8.37,0,8.53.18,8.56,8.25q.04,10.75-10.56,10.75c-39.17,0-78.34,0-117.5,0v-19.01Z"/>
      <path class="cls-1" d="M-.24,328.91c39.64,0,79.28,0,118.91,0,8.81,0,9.12.32,9.15,8.85q.03,10.15-10.14,10.15c-39.31,0-78.61,0-117.92,0v-19.01Z"/>
      <path class="cls-1" d="M-.24,194.85c42,0,84-.04,126.01.1,2.54,0,7.09,1.14,7.26,2.25.67,4.64.26,9.5-.38,14.2-.1.72-3.49,1.38-5.37,1.4-12.17.13-24.33.07-36.5.07-30.33,0-60.67,0-91,0v-18.01Z"/>
      <path class="cls-1" d="M-.24,412.95c42,0,84-.04,126.01.1,2.54,0,7.09,1.14,7.26,2.25.67,4.64.26,9.5-.38,14.2-.1.72-3.5,1.38-5.37,1.4-12.5.12-25,.07-37.5.07-30,0-60,0-90,0v-18.01Z"/>
      <path class="cls-1" d="M-.24,264.88c31.51,0,63.02,0,94.53.01,8.01,0,8.48.5,8.51,8.5,0,1,0,2,0,3-.09,6.72-.78,7.48-7.51,7.49-31.84.03-63.69.02-95.53.02v-19.01Z"/>
      <path class="cls-1" d="M-.24,483.98c31.5,0,62.99,0,94.49,0,8.44,0,8.54.12,8.55,8.75,0,.17,0,.33,0,.5,0,8.63-.11,8.75-8.55,8.75-31.5,0-62.99,0-94.49,0v-18.01Z"/>
      <path class="cls-1" d="M-.24,152.83c26.01,0,52.02-.01,78.03,0,7.36,0,7.95.65,8,8,0,1.17-.08,2.34,0,3.5.33,4.7-1.81,6.59-6.51,6.54-13.17-.14-26.34-.04-39.51-.04-13.34,0-26.68,0-40.01,0v-18.01Z"/>
      <path class="cls-1" d="M-.24,370.93c26.01,0,52.02-.01,78.03.01,7.36,0,7.95.64,8,7.99,0,1.17-.08,2.34,0,3.5.33,4.7-1.81,6.59-6.51,6.54-13.17-.14-26.34-.04-39.51-.04-13.34,0-26.68,0-40.01,0v-18.01Z"/>
      <path class="cls-1" d="M-.24,234.87c.83,0,1.66,0,2.49,0,11.75,0,13.73,2.35,11.23,14.21-.31,1.48-2.63,3.26-4.28,3.58-3.05.59-6.29.2-9.45.22v-18.01Z"/>
      <path class="cls-1" d="M-.24,452.97c.83,0,1.66,0,2.49,0,11.75,0,13.73,2.35,11.23,14.21-.31,1.48-2.63,3.27-4.28,3.58-3.05.59-6.29.2-9.45.22v-18.01Z"/>
      <path class="cls-4" d="M511.89,396.97c0,4.98,0,9.97.01,14.95-114.84,0-229.68.02-344.52.02-7.14,0-7.51-.42-7.54-7.76-.02-5.33-.02-10.67,0-16,.02-7.98.26-8.24,8.06-8.24,27.5-.01,55,0,82.51,0,9.31,0,9.47-.16,9.48-9.53,0-37.34,0-74.67,0-112.01,0-8.01-.49-8.5-8.49-8.51-27.67-.02-55.34,0-83.01-.01-8.44,0-8.54-.11-8.54-8.76,0-8.17-.02-16.33,0-24.5.02-7.33.4-7.73,7.55-7.75,9.5-.03,19,0,28.5,0,105.34,0,210.68.02,316.02.03,0,5.32,0,10.64,0,15.96-71.32,0-142.64,0-213.96.04-12.74,0-12.21-1.91-12.03,13.23.04,3.39,1.78,4.79,5.02,4.73,1.83-.03,3.67.02,5.5.02,71.82.01,143.64.02,215.46.03,0,7.98,0,15.97-.01,23.95-57.81,0-115.62.02-173.44.03-1.83,0-3.7-.15-5.48.16-1.19.21-3.2,1.06-3.24,1.71-.28,4.75-.69,9.63.24,14.21.23,1.14,5.2,1.85,7.99,1.85,57.98.11,115.96.1,173.94.11,0,7.99,0,15.97,0,23.96-73.32,0-146.64,0-219.96.04-12.73,0-12.2-1.91-12.02,13.24.04,3.4,1.79,4.79,5.03,4.73,1.83-.03,3.67.02,5.5.02,73.82.01,147.64.02,221.46.03,0,7.32,0,14.64,0,21.96-7.32,0-14.64.02-21.96.02-27.46,0-54.91-.03-82.37.07-2.19,0-6.13.67-6.28,1.55-.82,4.63-1.15,9.5-.52,14.12.15,1.07,4.74,2.16,7.3,2.17,34.61.15,69.22.11,103.83.12,0,3.99,0,7.97,0,11.96-63.5,0-127,.02-190.49.03-2,0-4.04-.18-5.98.17-1.34.24-3.58,1.17-3.64,1.93-.35,4.57-.86,9.35.22,13.68.34,1.35,5.45,2.12,8.38,2.13,63.83.13,127.66.11,191.49.12Z"/>
      <path class="cls-1" d="M511.91,91.78c0,6.35,0,12.71,0,19.06-73.82,0-147.64-.02-221.47-.03-1.83,0-3.67-.06-5.5-.02-3.23.06-5-1.33-5.02-4.73-.11-16.5-1.19-14.21,13.02-14.23,72.99-.06,145.98-.04,218.97-.05Z"/>
      <path class="cls-1" d="M511.91,8.74c0,6.02,0,12.04,0,18.07-71.82,0-143.64-.02-215.46-.03-1.83,0-3.67-.06-5.5-.02-3.23.06-4.98-1.33-5.02-4.73-.18-15.14-.72-13.23,12.02-13.24,71.32-.04,142.64-.04,213.96-.05Z"/>
      <path class="cls-1" d="M511.91,162.81c0,6.02-.01,12.04-.02,18.07-63.85,0-127.7,0-191.56-.12-2.92,0-7.98-.79-8.35-2.19-1.08-4.14-.55-8.78-.09-13.17.1-.94,2.49-2,3.98-2.33,1.91-.43,3.98-.22,5.98-.22,63.35-.02,126.7-.02,190.05-.03Z"/>
      <path class="cls-1" d="M511.89,50.75c0,6.02.02,12.04.02,18.07-57.82,0-115.63.01-173.45-.12-2.94,0-8.15-.81-8.41-2.06-.99-4.71-.62-9.78-.11-14.65.09-.86,3.31-1.98,5.07-1.97,17.11.12,34.21.63,51.32.67,12.6.03,25.21-.61,37.82-.68,11.46-.07,22.92.26,34.38.36,17.79.15,35.58.26,53.36.38Z"/>
      <path class="cls-1" d="M511.9,132.79c0,6.02,0,12.04.01,18.07-34.52,0-69.03.04-103.55-.14-2.65-.01-7.31-1.25-7.57-2.6-.86-4.41-.46-9.19.29-13.69.14-.86,4.08-1.53,6.27-1.53,32.51-.1,65.03-.07,97.54-.07,2.33,0,4.67-.02,7-.03Z"/>
      <path class="cls-1" d="M511.91,326.94c-73.82,0-147.64-.02-221.46-.03-1.83,0-3.67-.06-5.5-.02-3.23.06-4.99-1.33-5.03-4.73-.18-15.15-.71-13.23,12.02-13.24,73.32-.04,146.64-.03,219.96-.04,0,6.02,0,12.04,0,18.06Z"/>
      <path class="cls-1" d="M511.9,242.9c-71.82,0-143.64-.02-215.46-.03-1.83,0-3.67-.06-5.5-.02-3.24.06-4.98-1.34-5.02-4.73-.18-15.14-.71-13.22,12.03-13.23,71.32-.04,142.64-.03,213.96-.04,0,6.02,0,12.04,0,18.06Z"/>
      <path class="cls-1" d="M511.89,396.97c-63.83,0-127.66.01-191.49-.12-2.93,0-8.04-.77-8.38-2.13-1.08-4.33-.57-9.11-.22-13.68.06-.76,2.3-1.69,3.64-1.93,1.94-.35,3.98-.17,5.98-.17,63.5-.01,127-.02,190.49-.03,0,6.02-.02,12.04-.02,18.06Z"/>
      <path class="cls-1" d="M511.91,284.92c-57.98,0-115.96,0-173.94-.11-2.79,0-7.76-.72-7.99-1.85-.93-4.58-.52-9.46-.24-14.21.04-.66,2.04-1.5,3.24-1.71,1.78-.31,3.65-.16,5.48-.16,57.81-.01,115.62-.02,173.44-.03,0,6.02.01,12.04.02,18.07Z"/>
      <path class="cls-1" d="M511.91,366.95c-34.61,0-69.22.03-103.83-.12-2.55-.01-7.15-1.1-7.3-2.17-.63-4.63-.3-9.49.52-14.12.16-.88,4.09-1.54,6.28-1.55,27.46-.1,54.91-.07,82.37-.07,7.32,0,14.64-.02,21.96-.02,0,6.02,0,12.04,0,18.06Z"/>
    </g>
    <g>
      <path class="cls-3" d="M487.57,150.85h0c-26.4,0-52.8,0-79.21-.14,26.4.14,52.8.14,79.21.14Z"/>
      <path class="cls-3" d="M464.67,110.83h0c-58.08,0-116.15-.01-174.23-.02,58.08,0,116.15.02,174.23.02Z"/>
      <path class="cls-3" d="M502.98,194.82h0c-111.86,0-223.71.02-335.57.02,111.86,0,223.71,0,335.57-.02Z"/>
      <path class="cls-3" d="M427.79,68.76h0c-29.77-.01-59.55,0-89.32-.06,29.77.07,59.55.05,89.32.06Z"/>
      <path class="cls-3" d="M499.12,180.87h0c-59.59,0-119.19,0-178.78-.11,59.59.12,119.19.11,178.78.11Z"/>
      <path class="cls-3" d="M365.43,26.78h0c-22.99,0-45.99,0-68.98,0,22.99,0,45.99,0,68.98,0Z"/>
      <path class="cls-1" d="M457.29,411.92c-96.64,0-193.27.02-289.91.01-7.14,0-7.51-.42-7.54-7.76-.02-5.33-.02-10.67,0-16,.02-7.98.26-8.24,8.06-8.24,27.5-.01,55,0,82.51,0,9.31,0,9.47-.16,9.48-9.53,0-37.34,0-74.67,0-112.01,0-8.01-.49-8.5-8.49-8.51-27.67-.02-55.34,0-83.01-.01-8.44,0-8.54-.11-8.54-8.76,0-8.17-.02-16.33,0-24.5.02-7.33.4-7.73,7.55-7.75,9.5-.03,19,0,28.5,0,103.38,0,206.76.02,310.13.03-.89-4.73-1.9-9.42-3.05-14.05-111.86,0-223.71.02-335.57.02-7.17,0-7.54-.41-7.57-7.73-.02-5.17-.02-10.33,0-15.5.03-7.45.34-7.77,8.03-7.77,27.67-.01,55.33,0,83,0,8.98,0,9.01-.02,9.01-8.79,0-37.17,0-74.33,0-111.5,0-8.65-.1-8.76-8.55-8.76-27.67,0-55.33,0-83-.01-8,0-8.47-.5-8.49-8.51,0-1.67,0-3.33,0-5-39.02,16.04-73.2,41.47-99.64,73.54,61.21,0,122.43,0,183.64,0q11.03,0,11.03,11.28c0,7.84.04,15.67-.02,23.51-.05,6.4-.82,7.2-7.27,7.2-28.34.04-56.69.01-85.03.02-8.31,0-8.76.41-8.71,8.78.13,20.14.44,40.28.47,60.43.03,17.96-.1,35.93-.38,53.89-.07,4.44,1.81,5.98,5.92,5.96,12.17-.05,24.34,0,36.51,0,16.17,0,32.34,0,48.52,0,9.7,0,9.97.29,9.98,10.22,0,4.83.02,9.67,0,14.5-.05,6.81-.49,7.23-7.52,7.28-1.5.01-3,0-4.5,0-79.06,0-158.12,0-237.18,0,.83,5.06,1.83,10.05,2.96,15.01,79.04,0,158.08,0,237.12,0q9.12,0,9.13,9.17c0,8,.01,16,0,24-.02,8.42-.41,8.84-8.66,8.84-27.66.01-55.33,0-82.99,0-8.2,0-9.47,1.25-9.34,9.59.23,14.81.78,29.61.77,44.42-.02,20.45-.31,40.9-.76,61.35-.33,14.69-.54,14.69,14.12,14.69,26.5,0,53-.01,79.49.01,6.9,0,7.35.48,7.38,7.41.02,6.03,0,12.05-.01,18.08.51,0,1.02.04,1.53.04,81.75,0,154.42-38.64,200.91-98.6Z"/>
      <path class="cls-7" d="M168.33,34.77c27.67.02,55.33,0,83,.01,8.44,0,8.54.11,8.55,8.76,0,37.17,0,74.33,0,111.5,0,8.77-.03,8.79-9.01,8.79-27.67,0-55.33,0-83,0-7.68,0-8,.32-8.03,7.77-.02,5.17-.02,10.33,0,15.5.03,7.32.4,7.73,7.57,7.73,111.86,0,223.71,0,335.57-.02-1.17-4.7-2.43-9.37-3.86-13.96-59.59,0-119.19,0-178.78-.11-2.92,0-7.98-.79-8.35-2.19-1.08-4.14-.55-8.78-.09-13.17.1-.94,2.49-2,3.98-2.33,1.91-.43,3.98-.22,5.98-.22,56.94-.01,113.87-.02,170.81-.03-1.6-4.04-3.3-8.02-5.1-11.96-26.4,0-52.8,0-79.21-.14-2.65-.01-7.31-1.25-7.57-2.6-.86-4.41-.46-9.19.29-13.69.14-.86,4.08-1.53,6.27-1.53,23.71-.07,47.41-.05,71.12-.05-4.23-7.59-8.85-14.92-13.8-22-58.08,0-116.15-.01-174.23-.02-1.83,0-3.67-.06-5.5-.02-3.23.06-5-1.33-5.02-4.73-.11-16.5-1.19-14.21,13.02-14.23,52.34-.05,104.68-.04,157.01-.04-6.91-8.12-14.29-15.84-22.16-23.03-29.77-.01-59.55,0-89.32-.06-2.94,0-8.15-.81-8.41-2.06-.99-4.71-.62-9.78-.11-14.65.09-.86,3.31-1.98,5.07-1.97,17.11.12,34.21.63,51.32.67,6.27.02,12.55-.14,18.82-.3-12.45-9.01-25.73-16.94-39.73-23.61-22.99,0-45.99,0-68.98,0-1.83,0-3.67-.06-5.5-.02-3.23.06-4.98-1.33-5.02-4.73-.18-15.14-.72-13.23,12.02-13.24,5.21,0,10.43,0,15.64,0-18.4-4.23-37.53-6.55-57.21-6.55-34.18,0-66.77,6.79-96.54,19.03,0,1.67,0,3.33,0,5,.02,8.01.5,8.5,8.49,8.51Z"/>
      <path class="cls-7" d="M247.34,297.89c7.03-.05,7.48-.47,7.52-7.28.03-4.83.01-9.67,0-14.5,0-9.93-.28-10.21-9.98-10.22-16.17-.01-32.34,0-48.52,0-12.17,0-24.34-.05-36.51,0-4.12.02-5.99-1.52-5.92-5.96.28-17.96.41-35.92.38-53.89-.04-20.14-.35-40.28-.47-60.43-.05-8.37.4-8.78,8.71-8.78,28.34-.01,56.69.01,85.03-.02,6.45,0,7.22-.81,7.27-7.2.06-7.84.02-15.67.02-23.51q0-11.28-11.03-11.28c-61.21,0-122.43,0-183.64,0-4.25,5.16-8.25,10.52-12.09,16.01,23.72,0,47.44,0,71.16,0,8.37,0,8.53.18,8.56,8.25q.04,10.75-10.56,10.75c-27.08,0-54.16,0-81.24,0-4.28,7.44-8.2,15.12-11.73,23.01,17.83,0,35.66,0,53.49,0,7.36,0,7.95.65,8,8,0,1.17-.08,2.34,0,3.5.33,4.7-1.81,6.59-6.51,6.54-13.17-.14-26.34-.04-39.51-.04-7.58,0-15.16,0-22.74,0-2.8,7.83-5.22,15.84-7.25,24.01,38.66,0,77.33-.03,115.99.1,2.54,0,7.09,1.14,7.26,2.25.67,4.64.26,9.5-.38,14.2-.1.72-3.49,1.38-5.37,1.4-12.17.13-24.33.07-36.5.07-28.25,0-56.5,0-84.74,0-1.25,7.25-2.2,14.6-2.82,22.04,10.83.14,12.71,2.67,10.29,14.18-.31,1.48-2.63,3.26-4.28,3.58-2.23.43-4.56.34-6.89.26-.02,1.16-.09,2.3-.09,3.46,0,2.85.12,5.67.22,8.5,30.62,0,61.23,0,91.85,0,8.01,0,8.48.5,8.51,8.5,0,1,0,2,0,3-.09,6.72-.78,7.48-7.51,7.49-30.52.03-61.04.02-91.56.02.51,4.71,1.16,9.38,1.92,14.01,79.06,0,158.12,0,237.18,0,1.5,0,3,0,4.5,0Z"/>
      <path class="cls-7" d="M247.49,484.99c-26.5-.02-53-.01-79.49-.01-14.65,0-14.44,0-14.12-14.69.46-20.45.74-40.9.76-61.35.02-14.81-.54-29.61-.77-44.42-.13-8.34,1.14-9.59,9.34-9.59,27.66,0,55.33,0,82.99,0,8.25,0,8.64-.42,8.66-8.84.01-8,0-16,0-24q0-9.16-9.13-9.17c-79.04,0-158.08,0-237.12,0,1.23,5.4,2.61,10.74,4.17,16.01,35.29,0,70.59,0,105.88,0,8.81,0,9.12.32,9.15,8.85q.03,10.15-10.14,10.15c-32.79,0-65.59,0-98.38,0,3.04,7.87,6.46,15.55,10.24,23.01,16.08,0,32.17,0,48.25,0,7.36,0,7.95.64,8,7.99,0,1.17-.08,2.34,0,3.5.33,4.7-1.81,6.59-6.51,6.55-13.17-.14-26.34-.04-39.51-.04h-.25c5.11,8.34,10.73,16.33,16.74,24,23.17,0,46.33.02,69.5.1,2.54,0,7.09,1.14,7.26,2.25.67,4.64.26,9.5-.38,14.2-.1.72-3.5,1.38-5.37,1.4-12.5.12-25,.07-37.5.07-5.99,0-11.99,0-17.98,0,46,48.62,110.95,79.1,183.07,79.52.01-6.03.04-12.05.01-18.08-.03-6.93-.48-7.41-7.38-7.41Z"/>
      <path class="cls-5" d="M127.82,119.06c-.03-8.07-.19-8.25-8.56-8.25-23.72,0-47.44,0-71.16,0-4.3,6.14-8.33,12.48-12.08,19.01,27.08,0,54.16,0,81.24,0q10.59,0,10.56-10.75Z"/>
      <path class="cls-1" d="M127.82,337.77c-.03-8.52-.34-8.85-9.15-8.85-35.29,0-70.59,0-105.88,0,1.92,6.45,4.09,12.78,6.5,19.01,32.79,0,65.59,0,98.38,0q10.18,0,10.14-10.15Z"/>
      <path class="cls-1" d="M127.27,212.79c1.88-.02,5.27-.68,5.37-1.4.64-4.69,1.06-9.56.38-14.2-.16-1.11-4.72-2.24-7.26-2.25-38.66-.13-77.33-.1-115.99-.1-1.47,5.92-2.7,11.93-3.75,18.01,28.25,0,56.5,0,84.74,0,12.17,0,24.34.06,36.5-.07Z"/>
      <path class="cls-1" d="M127.27,430.89c1.88-.02,5.27-.68,5.37-1.4.64-4.69,1.06-9.56.38-14.2-.16-1.11-4.72-2.24-7.26-2.25-23.17-.08-46.33-.1-69.5-.1,4.89,6.25,10.07,12.25,15.52,18.01,5.99,0,11.99,0,17.98,0,12.5,0,25,.06,37.5-.07Z"/>
      <path class="cls-1" d="M102.8,276.39c.01-1,0-2,0-3-.03-8-.5-8.49-8.51-8.5-30.62-.01-61.23,0-91.85,0,.21,6.4.62,12.74,1.29,19.01,30.52,0,61.04.01,91.56-.02,6.73,0,7.42-.77,7.51-7.49Z"/>
      <path class="cls-1" d="M79.29,170.88c4.7.05,6.84-1.85,6.51-6.54-.08-1.16,0-2.33,0-3.5-.05-7.35-.65-7.99-8-8-17.83-.01-35.66,0-53.49,0-2.63,5.89-5.08,11.89-7.26,18.01,7.58,0,15.16,0,22.74,0,13.17,0,26.34-.1,39.51.04Z"/>
      <path class="cls-1" d="M79.29,388.98c4.69.05,6.84-1.85,6.51-6.55-.08-1.16,0-2.33,0-3.5-.05-7.35-.64-7.99-8-7.99-16.08-.01-32.17,0-48.25,0,3.11,6.14,6.41,12.17,9.99,18.01h.25c13.17,0,26.34-.1,39.51.04Z"/>
      <path class="cls-1" d="M9.21,252.66c1.65-.32,3.97-2.1,4.28-3.58,2.42-11.51.55-14.03-10.29-14.18-.5,5.95-.8,11.96-.88,18.02,2.33.07,4.66.17,6.89-.26Z"/>
      <path class="cls-4" d="M167.39,208.86c-7.15.02-7.53.41-7.55,7.75-.02,8.17-.01,16.33,0,24.5,0,8.65.1,8.76,8.54,8.76,27.67,0,55.34,0,83.01.01,7.99,0,8.49.49,8.49,8.51.01,37.34,0,74.67,0,112.01,0,9.37-.16,9.53-9.48,9.53-27.5,0-55,0-82.51,0-7.8,0-8.04.26-8.06,8.24-.01,5.33-.02,10.67,0,16,.03,7.34.4,7.75,7.54,7.76,96.64,0,193.27,0,289.91-.01,3.77-4.86,7.39-9.85,10.81-14.98-49.23,0-98.47,0-147.7-.09-2.93,0-8.04-.78-8.38-2.13-1.08-4.33-.57-9.11-.22-13.68.06-.76,2.3-1.69,3.64-1.93,1.94-.35,3.98-.17,5.98-.17,52.54-.01,105.08-.02,157.63-.02,2.17-3.93,4.25-7.91,6.22-11.97-25.73,0-51.46,0-77.19-.12-2.55-.01-7.15-1.1-7.3-2.17-.63-4.63-.3-9.49.52-14.12.16-.88,4.09-1.54,6.28-1.55,27.46-.1,54.91-.07,82.37-.07,1.04,0,2.08,0,3.13,0,2.81-7.18,5.3-14.5,7.45-21.98-70.03,0-140.05-.02-210.08-.03-1.83,0-3.67-.06-5.5-.02-3.23.06-4.99-1.33-5.03-4.73-.18-15.15-.71-13.23,12.02-13.24,71.04-.04,142.09-.03,213.13-.04,1.65-7.86,2.92-15.85,3.82-23.96-56.97,0-113.95,0-170.92-.1-2.79,0-7.76-.72-7.99-1.85-.93-4.58-.52-9.46-.24-14.21.04-.66,2.04-1.5,3.24-1.71,1.78-.31,3.65-.16,5.48-.16,57.27-.01,114.54-.02,171.81-.03.14-3.48.26-6.96.26-10.47,0-4.52-.13-9.01-.36-13.48-71.24,0-142.48-.02-213.72-.03-1.83,0-3.67-.06-5.5-.02-3.24.06-4.98-1.34-5.02-4.73-.18-15.14-.71-13.22,12.03-13.23,70.19-.04,140.37-.03,210.56-.04-.67-5.37-1.49-10.69-2.48-15.96-103.38,0-206.76-.02-310.13-.03-9.5,0-19-.02-28.5,0Z"/>
      <path class="cls-1" d="M279.92,106.05c.02,3.4,1.79,4.79,5.02,4.73,1.83-.03,3.67.02,5.5.02,58.07,0,116.15.02,174.23.02-4.61-6.58-9.52-12.94-14.71-19.04-52.34,0-104.68,0-157.01.04-14.21.01-13.13-2.28-13.02,14.23Z"/>
      <path class="cls-1" d="M285.92,22.02c.04,3.4,1.79,4.79,5.02,4.73,1.83-.03,3.67.02,5.5.02,22.99,0,45.99,0,68.98,0-16.39-7.8-33.75-13.84-51.84-18-5.21,0-10.43,0-15.64,0-12.74,0-12.2-1.9-12.02,13.24Z"/>
      <path class="cls-1" d="M315.88,163.06c-1.49.33-3.88,1.4-3.98,2.33-.46,4.39-1,9.04.09,13.17.37,1.39,5.43,2.18,8.35,2.19,59.59.12,119.19.11,178.78.11-1.91-6.13-4.1-12.13-6.45-18.05-56.94,0-113.87.02-170.81.03-2,0-4.06-.21-5.98.22Z"/>
      <path class="cls-1" d="M335.02,50.02c-1.77-.01-4.98,1.12-5.07,1.97-.51,4.87-.88,9.94.11,14.65.26,1.25,5.47,2.05,8.41,2.06,29.77.07,59.55.05,89.32.06-7.17-6.55-14.74-12.66-22.63-18.37-6.27.17-12.55.32-18.82.3-17.11-.04-34.21-.55-51.32-.67Z"/>
      <path class="cls-1" d="M401.08,134.42c-.75,4.5-1.15,9.28-.29,13.69.26,1.35,4.92,2.59,7.57,2.6,26.4.14,52.8.14,79.21.14-2.81-6.14-5.83-12.15-9.1-18.02-23.71,0-47.41-.02-71.12.05-2.19,0-6.12.68-6.27,1.53Z"/>
      <path class="cls-1" d="M279.92,322.16c.04,3.4,1.79,4.79,5.03,4.73,1.83-.03,3.67.02,5.5.02,70.03.01,140.05.02,210.08.03,1.71-5.94,3.26-11.95,4.54-18.06-71.04,0-142.08,0-213.13.04-12.73,0-12.2-1.91-12.02,13.24Z"/>
      <path class="cls-1" d="M285.92,238.11c.04,3.39,1.78,4.79,5.02,4.73,1.83-.03,3.67.02,5.5.02,71.24.01,142.48.02,213.72.03-.32-6.09-.92-12.1-1.66-18.06-70.19,0-140.37,0-210.56.04-12.74,0-12.21-1.91-12.03,13.23Z"/>
      <path class="cls-1" d="M315.44,379.11c-1.34.24-3.58,1.17-3.64,1.93-.35,4.57-.86,9.35.22,13.68.34,1.35,5.45,2.12,8.38,2.13,49.23.1,98.47.09,147.7.09,3.89-5.84,7.54-11.86,10.95-18.03-52.54,0-105.08.01-157.63.02-2,0-4.04-.18-5.98.17Z"/>
      <path class="cls-1" d="M332.97,267.04c-1.19.21-3.2,1.06-3.24,1.71-.28,4.75-.69,9.63.24,14.21.23,1.14,5.2,1.85,7.99,1.85,56.97.11,113.95.1,170.92.1.67-5.96,1.12-11.98,1.37-18.06-57.27,0-114.54.02-171.81.03-1.83,0-3.7-.15-5.48.16Z"/>
      <path class="cls-1" d="M407.58,348.99c-2.19,0-6.13.67-6.28,1.55-.82,4.63-1.15,9.5-.52,14.12.15,1.07,4.74,2.16,7.3,2.17,25.73.11,51.46.12,77.19.12,2.85-5.88,5.41-11.91,7.81-18.04-1.04,0-2.08,0-3.13,0-27.46,0-54.91-.03-82.37.07Z"/>
    </g>
  </g>
  <g id="Layer_2" data-name="Layer 2">
    <path class="cls-2" d="M288.72,293.58c-25.4-9.24-53.4-7.76-80.04-7.76-21.53,0-21.57,33.47,0,33.47,23.72,0,48.54-1.65,71.14,6.56,20.27,7.37,29.01-24.96,8.9-32.27Z"/>
  </g>
  <g id="Layer_4" data-name="Layer 4">
    <path class="cls-2" d="M363.91,129.34c-42.24,0-76.49,34.24-76.49,76.49s34.24,76.49,76.49,76.49,76.49-34.24,76.49-76.49-34.24-76.49-76.49-76.49ZM363.91,270.91c-35.95,0-65.09-29.14-65.09-65.09s29.14-65.09,65.09-65.09,65.09,29.14,65.09,65.09-29.14,65.09-65.09,65.09Z"/>
    <g>
      <path class="cls-2" d="M363.91,146.25c-32.9,0-59.58,26.67-59.58,59.58s26.67,59.58,59.58,59.58,59.58-26.67,59.58-59.58-26.67-59.58-59.58-59.58ZM385.99,253.54l-51.41-5.51-20.93-47.28,30.48-41.77,51.41,5.51,20.93,47.28-30.48,41.77Z"/>
      <polygon class="cls-2" points="389.06 173.37 348.57 169.03 324.58 201.92 341.06 239.15 381.54 243.49 405.54 210.6 389.06 173.37"/>
    </g>
    <circle class="cls-6" cx="365.06" cy="206.23" r="22.29"/>
    <rect class="cls-2" x="430.34" y="201.62" width="30.2" height="30.2" transform="translate(24.37 -44.22) rotate(5.84)"/>
    <rect class="cls-2" x="308.87" y="123" width="23.91" height="30.2" transform="translate(265.44 -206.77) rotate(57.59)"/>
    <rect class="cls-2" x="270.59" y="184.97" width="24.28" height="30.2" transform="translate(21.83 -27.74) rotate(5.84)"/>
    <rect class="cls-2" x="393.5" y="261.23" width="30.2" height="30.2" transform="translate(422.85 -216.73) rotate(57.59)"/>
  </g>
  <g id="Layer_6" data-name="Layer 6">
    <ellipse class="cls-6" cx="134.09" cy="183.15" rx="27.73" ry="26.8"/>
    <g>
      <path class="cls-2" d="M134.38,260.88c5.83.03,11.56-.66,17.21-1.88,11.1-2.39,21.25-6.85,30.42-13.37,4.11-2.92,7.92-6.16,11.37-9.78,5.99-6.28,10.81-13.32,14.42-21.13,2.51-5.42,4.32-11.05,5.51-16.87.11-.55.39-.74.92-.65,1.43.25,2.85.5,4.28.76.47.09.64.36.54.82-1.67,7.93-4.31,15.52-8.2,22.7-2.73,5.04-5.93,9.78-9.65,14.18-3.69,4.36-7.77,8.34-12.29,11.9-5.33,4.19-11.08,7.75-17.28,10.62-5.53,2.56-11.27,4.53-17.23,5.94-7.57,1.78-15.25,2.44-23.01,2.22-5.68-.16-11.28-.92-16.82-2.17-11.1-2.5-21.3-6.95-30.52-13.41-3.16-2.21-6.13-4.69-9-7.25-7.82-6.99-13.9-15.24-18.51-24.51-2.48-5-4.54-10.17-5.78-15.59-.88-3.86-1.68-7.77-2.18-11.69-.65-5.07-.76-10.18-.15-15.27.45-3.77.93-7.55,1.7-11.27,1.54-7.48,4.32-14.56,7.99-21.31,3.3-6.05,7.32-11.62,12.06-16.68,6.42-6.86,13.78-12.59,22.15-17.1,5.85-3.16,11.99-5.64,18.43-7.42,4.81-1.33,9.7-2.34,14.7-2.71,3.59-.27,7.2-.57,10.78-.44,4.31.16,8.61.77,12.91,1.19.69.07.97.39.8,1.09-.25,1.11-.44,2.23-.63,3.34-.21,1.18-.3,1.23-1.53,1.06-2.07-.29-4.14-.63-6.22-.81-5.21-.45-10.41-.4-15.63.12-8.23.83-16.12,2.86-23.69,6.06-7.71,3.25-14.72,7.57-21.04,12.95-9.38,7.99-16.46,17.57-21.24,28.73-1.93,4.5-3.39,9.14-4.39,13.91-.98,4.69-1.56,9.41-1.66,14.2-.09,4.33.12,8.63.78,12.9,1.66,10.65,5.4,20.57,11.29,29.73,3.37,5.26,7.31,10.08,11.87,14.41,9.21,8.73,19.95,15.02,32.28,18.77,4.81,1.46,9.71,2.5,14.71,3.05,3.16.35,6.34.43,9.52.62Z"/>
      <path class="cls-2" d="M206.27,182.83c-.04,7.6-1.36,14.97-3.84,22.14-3.23,9.33-8.28,17.66-15.19,24.93-8,8.41-17.57,14.52-28.66,18.42-4.89,1.72-9.93,2.86-15.09,3.52-4.28.55-8.58.77-12.87.51-13.2-.79-25.38-4.61-36.4-11.77-4.1-2.66-7.88-5.68-11.31-9.1-4.77-4.76-8.75-10.07-11.97-15.93-3.03-5.52-5.25-11.32-6.67-17.4-.86-3.66-1.33-7.38-1.59-11.13-.32-4.55-.08-9.07.57-13.56,1.01-7.02,3.07-13.75,6.22-20.17,3.19-6.51,7.33-12.4,12.4-17.69,4.74-4.95,10.17-9.06,16.15-12.52,1.01-.58,1.06-.55,1.67.45.42.7.8,1.42,1.24,2.11.35.55.27.87-.32,1.23-1.8,1.08-3.6,2.17-5.33,3.36-6.26,4.28-11.55,9.5-15.94,15.58-4.81,6.65-8.18,13.92-10.18,21.79-1,3.93-1.74,7.92-1.77,11.99-.03,3.07-.16,6.16.11,9.22.49,5.75,1.82,11.35,3.92,16.76,3.8,9.77,9.63,18.24,17.58,25.3,6.53,5.8,14,10.15,22.34,13.1,4.5,1.59,9.12,2.72,13.86,3.35,5.69.76,11.4.81,17.12.14,12.09-1.42,22.98-5.72,32.66-12.8,7.79-5.69,13.98-12.75,18.59-21.11,3.98-7.23,6.55-14.89,7.44-23.03.36-3.32.57-6.68.48-10.01-.15-5.41-1.08-10.73-2.69-15.93-1.39-4.49-3.24-8.79-5.57-12.89-.36-.64-.24-.93.41-1.23.83-.38,1.62-.84,2.4-1.31.6-.36.98-.23,1.27.36,1.15,2.34,2.4,4.63,3.45,7.01,2.44,5.54,4.04,11.32,4.77,17.3.36,3,.52,6.02.77,9.02Z"/>
      <path class="cls-2" d="M179.73,182.82c-.17-10.58-3.65-20.01-10.71-28.12-6.7-7.69-15.19-12.59-25.39-14.66-.73-.15-1-.44-.84-1.16.28-1.29.49-2.6.73-3.9.12-.69.64-.59,1.1-.49,1.33.29,2.67.57,3.99.94,5.37,1.52,10.39,3.78,14.98,6.9,8.41,5.71,14.51,13.19,18.34,22.4,1.65,3.95,2.69,8.06,3.24,12.28.64,4.9.43,9.79-.48,14.66-1.29,6.9-3.94,13.25-8,19.06-4.31,6.16-9.81,11.1-16.42,14.89-4.43,2.54-9.16,4.36-14.16,5.51-3.07.71-6.2,1.08-9.36,1.26-4.16.23-8.26-.13-12.32-.88-5.52-1.03-10.74-2.9-15.61-5.64-6.85-3.85-12.5-8.94-16.91-15.3-3.39-4.89-5.8-10.19-7.24-15.92-1.04-4.14-1.58-8.34-1.44-12.59.08-2.44.49-4.88.75-7.32.06-.6.35-.76.96-.63,1.36.28,2.74.51,4.12.72.64.1.62.47.57.94-.22,2.44-.59,4.89-.59,7.33,0,8.76,2.53,16.81,7.55,24.12,5.31,7.72,12.45,13.27,21.36,16.66,4.02,1.53,8.2,2.47,12.52,2.8,12.15.94,22.99-2.34,32.46-9.69,7.23-5.61,12.17-12.79,14.83-21.39,1.41-4.55,1.95-8.33,1.98-12.77Z"/>
      <path class="cls-2" d="M193.42,181.56c-.09,12.06-2.93,21.92-8.61,31.01-4.84,7.74-11.24,14.02-19.16,18.81-5.55,3.36-11.53,5.77-17.94,7.18-5.2,1.15-10.46,1.72-15.78,1.49-3.65-.16-7.27-.63-10.85-1.43-5.86-1.32-11.39-3.43-16.58-6.38-6.78-3.85-12.55-8.8-17.29-14.86-4.91-6.29-8.31-13.28-10.23-20.94-.89-3.55-1.38-7.15-1.57-10.81-.4-7.54.77-14.85,3.39-21.95,2.75-7.45,6.95-14.04,12.54-19.82,6.43-6.65,14.07-11.56,22.94-14.59,3.11-1.06,6.39-1.67,9.6-2.49.88-.23.89.38.97.92.08.56.27,1.11-.65,1.27-7.25,1.26-13.99,3.8-20.22,7.63-3.46,2.13-6.67,4.55-9.55,7.35-5.99,5.82-10.52,12.56-13.41,20.31-1.8,4.83-2.93,9.78-3.25,14.91-.94,15.11,3.67,28.43,13.87,39.91,4.67,5.26,10.25,9.44,16.63,12.62,6.94,3.47,14.29,5.47,22.08,6.01,7.31.51,14.42-.38,21.39-2.53,8.98-2.78,16.75-7.48,23.3-14.01,7.05-7.03,11.81-15.33,14.34-24.81,1.43-5.37,1.97-10.84,1.67-16.37-.09-1.61-.35-3.22-.55-4.82-.16-1.26.12-1.57,1.45-1.63.59-.03.71.3.76.75.28,2.9.57,5.8.71,7.26Z"/>
      <path class="cls-2" d="M169.71,182.82c-.16,7.62-2.47,14.51-7.18,20.56-4.58,5.88-10.54,9.96-17.85,12.14-5.7,1.69-11.48,1.95-17.3.83-6.58-1.27-12.36-4.14-17.22-8.65-.86-.8-1.67-1.66-2.5-2.5-.38-.38-.35-.7.08-1.09,1.92-1.71,1.89-1.7,3.63.06,4.1,4.16,9.03,7.04,14.79,8.48,9.02,2.25,17.54,1,25.37-3.86,6.85-4.25,11.4-10.25,13.5-17.89,2.03-7.36,1.37-14.53-2.07-21.36-3.39-6.71-8.66-11.64-15.75-14.71-5.26-2.28-10.76-3-16.45-2.42-5.95.61-11.26,2.8-15.97,6.35-.54.41-.84.38-1.22-.12-.31-.41-.64-.82-1.01-1.18-.62-.61-.35-1.02.23-1.44,2.48-1.82,5.13-3.36,8.02-4.5,5.75-2.28,11.7-3.1,17.88-2.34,8.45,1.03,15.6,4.53,21.41,10.52,4.64,4.78,7.64,10.41,8.83,16.88.38,2.06.54,4.16.8,6.25Z"/>
      <path class="cls-2" d="M161.09,182.94c-.08-6.63-2.26-12.52-6.97-17.38-1.6-1.66-3.56-3-5.4-4.44-.78-.61-.8-.56,0-1.85.43-.69.83-.31,1.23-.05,6.68,4.17,10.98,10.01,12.71,17.49,1.99,8.58.17,16.48-5.35,23.47-4.01,5.08-9.29,8.41-15.72,9.99-7.74,1.89-15.09.9-21.96-2.97-6.15-3.46-10.36-8.54-12.71-15.03-1.25-3.45-1.79-7.02-1.59-10.67.25-4.32,1.45-8.39,3.63-12.18.28-.48.6-.6,1.07-.26.18.13.37.25.57.33.58.25.61.58.32,1.1-1.36,2.41-2.33,4.95-2.86,7.65-.63,3.22-.63,6.42,0,9.64.85,4.28,2.65,8.12,5.5,11.49,3.95,4.67,8.98,7.74,15.11,8.99,8.77,1.79,16.6-.26,23.34-5.86,5.17-4.31,8.12-9.88,8.95-16.46.04-.35.12-.7.13-1.05.02-.65,0-1.3,0-1.94Z"/>
      <path class="cls-2" d="M175.15,179.88c-.14,13.12-3.55,21.91-10.43,29.37-5.23,5.67-11.66,9.59-19.26,11.64-5.02,1.36-10.11,1.82-15.32,1.28-8.42-.87-15.87-3.91-22.28-9.21-6.62-5.48-11-12.34-13.08-20.55-.9-3.54-1.37-7.12-1.19-10.75.41-8.63,3.23-16.46,8.87-23.22,1.6-1.92,3.52-3.61,5.32-5.37.19-.19.61-.34.86-.28.53.13.52.6,0,1.03-2.68,2.2-4.99,4.71-6.97,7.51-2.87,4.06-4.84,8.48-5.95,13.28-.9,3.91-1.23,7.85-.82,11.83,1,9.72,5.17,17.97,12.54,24.64,5.51,4.99,12.03,8.19,19.48,9.48,2.46.42,4.98.7,7.48.71,5.5.03,10.82-1.02,15.86-3.21,8.42-3.66,14.83-9.42,19.17-17.29,2.66-4.83,4.12-9.99,4.46-15.47.6-9.72-2.27-18.37-8.37-26.07-.19-.24-.4-.7-.29-.86.34-.51.77-.41,1.11.09,1.28,1.87,2.69,3.66,3.82,5.6,3.2,5.5,5.09,12.34,5.01,15.82Z"/>
    </g>
  </g>
</svg>